<?xml version="1.0" ?><!DOCTYPE svg  PUBLIC '-//W3C//DTD SVG 1.1//EN'  'http://www.w3.org/Graphics/SVG/1.1/DTD/svg11.dtd'><svg height="512px" style="enable-background:new 0 0 512 512;" version="1.1" viewBox="0 0 512 512" width="512px" xml:space="preserve" xmlns="http://www.w3.org/2000/svg" xmlns:xlink="http://www.w3.org/1999/xlink"><g id="_x31_020_x2C__Australia_x2C__country_x2C__flag_x2C__nation_x2C__location"><g id="XMLID_359_"><path d="M179.85,131.933c-5.787,6.028-10.865,12.739-15.104,19.999h37.393L179.85,131.933z" id="XMLID_360_"/><path d="M159.906,161.251c-6.1,13.342-9.505,28.163-9.505,43.766c0,0.903,0.033,1.803,0.055,2.703l51.76-46.469    H159.906z" id="XMLID_361_"/><path d="M209.71,110.119c-8.379,4.104-16.138,9.284-23.096,15.361l23.096,20.724V110.119z" id="XMLID_362_"/><polygon id="XMLID_363_" points="219.029,167.088 219.029,213.811 271.101,213.811   "/><polygon id="XMLID_364_" points="278.611,208.028 278.611,161.251 226.479,161.251   "/><path d="M269.529,100.28c-0.137-0.017-0.273-0.032-0.41-0.049c-0.732-0.092-1.467-0.177-2.205-0.253    c-0.248-0.025-0.497-0.047-0.745-0.07c-0.638-0.061-1.277-0.121-1.919-0.171c-0.372-0.028-0.744-0.049-1.117-0.074    c-0.531-0.035-1.061-0.073-1.593-0.102c-0.524-0.026-1.05-0.043-1.575-0.063c-0.393-0.015-0.785-0.035-1.18-0.045    c-0.927-0.024-1.856-0.037-2.785-0.037c-13.001,0-25.458,2.367-36.971,6.685v40.056l51.02-45.804    C269.875,100.33,269.703,100.303,269.529,100.28z" id="XMLID_365_"/><polygon id="XMLID_366_" points="209.71,213.811 209.71,167.048 157.622,213.811   "/><polygon id="XMLID_367_" points="278.611,151.932 278.611,105.19 226.547,151.932   "/><path d="M269.282,309.783l-14.227-10.421l-13.928,10.201c4.861,0.688,9.825,1.052,14.873,1.052    C260.498,310.615,264.932,310.331,269.282,309.783z" id="XMLID_368_"/><path d="M220.896,270.364c0.626-1.916,2.414-3.212,4.429-3.212h19.317l5.978-18.544    c0.621-1.925,2.413-3.229,4.435-3.229c2.023,0,3.814,1.305,4.435,3.23l5.977,18.543h19.318c2.016,0,3.803,1.296,4.429,3.212    c0.627,1.915-0.049,4.017-1.676,5.208l-15.661,11.469l5.986,18.572c0.291,0.904,0.283,1.845,0.034,2.713    c47.755-10.11,83.701-52.589,83.701-103.31c0-47.103-31-87.096-73.668-100.661v114.115c0,0.1-0.023,0.194-0.029,0.293    c-0.011,0.167-0.021,0.332-0.051,0.498c-0.024,0.147-0.063,0.288-0.103,0.429c-0.04,0.149-0.081,0.296-0.136,0.441    c-0.057,0.146-0.124,0.283-0.194,0.422c-0.065,0.131-0.131,0.26-0.209,0.386c-0.09,0.143-0.192,0.273-0.296,0.405    c-0.062,0.077-0.106,0.163-0.174,0.238c-0.026,0.029-0.061,0.049-0.088,0.078c-0.141,0.148-0.296,0.279-0.456,0.409    c-0.089,0.073-0.173,0.154-0.267,0.221c-0.178,0.124-0.372,0.224-0.566,0.322c-0.085,0.043-0.164,0.099-0.25,0.136    c-0.269,0.116-0.55,0.204-0.842,0.268c-0.018,0.004-0.034,0.013-0.052,0.017c-0.307,0.063-0.623,0.097-0.948,0.097h-131.31    c7.255,41.795,39.16,75.242,80.144,84.758c-0.138-0.741-0.102-1.521,0.141-2.274l5.986-18.572l-15.661-11.469    C220.946,274.381,220.271,272.279,220.896,270.364z" id="XMLID_369_"/><path d="M248.134,286.698l-2.608,8.092l6.776-4.963c1.638-1.2,3.868-1.2,5.506,0l6.773,4.962l-2.607-8.091    c-0.615-1.911,0.063-4.002,1.682-5.188l6.879-5.038h-8.463c-2.023,0-3.814-1.305-4.436-3.23l-2.583-8.013l-2.583,8.014    c-0.621,1.925-2.413,3.229-4.435,3.229h-8.462l6.879,5.038C248.073,282.696,248.75,284.787,248.134,286.698z" id="XMLID_370_"/><path d="M372.495,445.749H259.672c16.348-24.386,36.711-49.393,56.49-73.679    c45.077-55.348,91.688-112.578,91.688-163.289c0-83.73-68.12-151.851-151.851-151.851s-151.851,68.12-151.851,151.851    c0,51.121,46.396,107.366,91.266,161.759c20.354,24.675,41.31,50.084,58.173,75.209H139.504c-2.573,0-4.66,2.086-4.66,4.66    s2.087,4.66,4.66,4.66h232.991c2.573,0,4.659-2.086,4.659-4.66S375.068,445.749,372.495,445.749z M141.946,219.112    c-0.003-0.024-0.012-0.046-0.015-0.07c-0.042-0.334-0.07-0.674-0.109-1.01c-0.067-0.594-0.133-1.188-0.191-1.784    c-0.051-0.524-0.097-1.05-0.141-1.577c-0.047-0.563-0.09-1.126-0.128-1.69c-0.034-0.495-0.067-0.989-0.095-1.486    c-0.037-0.671-0.065-1.344-0.091-2.018c-0.015-0.398-0.034-0.795-0.045-1.193c-0.031-1.086-0.049-2.174-0.049-3.267    c0-17.857,4.096-34.776,11.395-49.868c0.149-0.456,0.355-0.884,0.629-1.266c5.821-11.665,13.567-22.208,22.821-31.21    c0.079-0.104,0.142-0.216,0.23-0.314c0.255-0.284,0.543-0.519,0.846-0.725c10.132-9.604,22.008-17.383,35.097-22.813    c0.335-0.189,0.693-0.338,1.073-0.439c13.243-5.338,27.697-8.283,42.828-8.283c1.11,0,2.217,0.02,3.319,0.051    c0.369,0.011,0.737,0.028,1.106,0.042c0.73,0.028,1.461,0.061,2.189,0.102c0.449,0.025,0.898,0.055,1.348,0.086    c0.637,0.044,1.273,0.094,1.907,0.148c0.495,0.041,0.99,0.083,1.485,0.132c0.555,0.055,1.107,0.118,1.658,0.181    c2.316,0.261,4.618,0.592,6.905,0.991c0.175,0.03,0.353,0.059,0.528,0.091c0.84,0.15,1.678,0.313,2.514,0.482    c0.113,0.023,0.227,0.047,0.34,0.07c0.658,0.135,1.316,0.268,1.972,0.415c0.083,0.019,0.166,0.036,0.25,0.06    c0.969,0.221,1.938,0.445,2.9,0.691c0.061,0.016,0.114,0.043,0.174,0.06c49.577,12.744,86.321,57.819,86.321,111.317    c0,63.366-51.552,114.919-114.918,114.919C197.405,319.936,148.917,275.854,141.946,219.112z" id="XMLID_371_"/></g></g><g id="Layer_1"/></svg>