<?xml version="1.0" ?><!DOCTYPE svg  PUBLIC '-//W3C//DTD SVG 1.1//EN'  'http://www.w3.org/Graphics/SVG/1.1/DTD/svg11.dtd'><svg enable-background="new 0 0 48 48" height="48px" version="1.1" viewBox="0 0 48 48" width="48px" xml:space="preserve" xmlns="http://www.w3.org/2000/svg" xmlns:xlink="http://www.w3.org/1999/xlink"><g id="Layer_1"/><g id="Layer_2"/><g id="Layer_3"/><g id="Layer_4"/><g id="Layer_5"/><g id="Layer_7"/><g id="Layer_6"/><g id="Layer_8"/><g id="Layer_9"/><g id="Layer_11"/><g id="Layer_10"/><g id="Layer_12"/><g id="Layer_13"><g><path d="M21.042,42.959c-0.16,0-0.321-0.038-0.467-0.116c-0.327-0.173-0.532-0.512-0.533-0.882L20.001,24.45    L2.335,8.747c-0.31-0.275-0.417-0.715-0.27-1.103S2.585,7,3,7h42c0.415,0,0.787,0.257,0.935,0.645s0.04,0.827-0.27,1.103    L28,24.449v13.468c0,0.331-0.164,0.642-0.438,0.827l-5.958,4.042C21.435,42.901,21.239,42.959,21.042,42.959z M5.63,9    l16.034,14.253C21.877,23.441,22,23.713,22,23.998l0.038,16.077L26,37.387V24c0-0.285,0.122-0.558,0.335-0.747L42.37,9H5.63z" fill="#231F20"/></g><line fill="none" stroke="#231F20" stroke-linecap="round" stroke-linejoin="round" stroke-miterlimit="10" stroke-width="2" x1="7.5" x2="40.231" y1="12" y2="12"/></g></svg>